<svg xmlns="http://www.w3.org/2000/svg" xmlns:xlink="http://www.w3.org/1999/xlink" width="3556" height="1050" viewBox="0 0 3556 1050">
  <defs>
    <style>
      .cls-1 {
        fill: #fcfcfb;
        fill-rule: evenodd;
        filter: url(#filter);
      }
    </style>
    <filter id="filter" x="-19" y="-4" width="3589" height="950" filterUnits="userSpaceOnUse">
      <feOffset result="offset" dy="8" in="SourceAlpha"/>
      <feGaussianBlur result="blur" stdDeviation="3.606"/>
      <feFlood result="flood" flood-color="#232324" flood-opacity="0.47"/>
      <feComposite result="composite" operator="in" in2="blur"/>
      <feBlend result="blend" in="SourceGraphic"/>
    </filter>
  </defs>
  <path id="Shape" class="cls-1" d="M3556.71,0.045v856.1l-13.07,4.91-6.58,1.621a50.623,50.623,0,0,0-9.82,3.289l-6.54-1.669c-6.53-1.62-6.53,0-18.02-1.62l-9.83,1.62h-4.91c-4.91,0-6.54,3.29-6.54,3.29h-6.53l-14.73-1.621-6.59-1.669c-6.53-1.62,0,0-4.91-3.241a10.611,10.611,0,0,1-4.91-8.2l-13.07-9.821-8.2-6.53-11.44-4.911h-11.5c-11.44,0,0,0-11.44-1.669-11.45-1.62,0,0-6.54-6.53-2.11-2.111-2.85-2.848-3-3.092,0.25,0.1,1.58.981-.29-1.818-3.29-4.91-11.44,0-11.44,0h-11.5l-1.62-4.91c-1.62-4.91-8.2-6.531-8.2-6.531l-34.38,19.641-8.16,6.53-6.58,4.91-6.54,8.2h-31.09l-8.2,1.62c-8.2,1.62,0,0-11.44,11.441l-8.21,3.29-6.53,1.62-8.21,8.2-16.35,4.91s-16.41,4.91-21.32,3.289c-4.91-1.669-11.45,1.621-11.45,1.621L3152.3,893.76h-34.39a19.67,19.67,0,0,0-8.2,1.669l-11.44,3.24-11.45-1.62-9.83-1.62-6.57-4.91c-6.54-4.91-11.45,0-11.45,0l-8.2,6.53-4.91-1.62a39.592,39.592,0,0,1-7.57-3.927c-2.26-1.425-3.88-2.653-3.88-2.653l-6.54-8.151c-6.57-8.2,0,0-3.28-8.2,0,0-8.21,1.62-13.12,0s-13.07,6.53-13.07,6.53l-4.91-1.62c-2.46-.786-4.52-3.241-5.94-5.5a29.935,29.935,0,0,1-2.26-4.319l-6.54-6.531c-6.58-6.579-9.82-1.669-9.82-1.669l-9.82,4.91-4.92-1.62c-4.91-1.621-8.2,0-16.4-3.29h-6.53l-14.74,4.91a128.039,128.039,0,0,1-18.03,1.669c-8.15,0,0,0-4.91-3.289s-9.83,0-9.83,0h-8.15l-4.91,6.53-4.91,6.58-6.59,1.62c-6.53,1.62,0,0-8.15,0-8.2,0-6.58,9.82-6.58,9.82l-4.91,1.62c-4.92,1.67-8.16-3.24-8.16-3.24l-8.2-1.67-6.53-3.241-4.92-3.289c-4.91-3.29-1.67-6.531-1.67-6.531l-11.44-1.669-11.45-1.62-11.49-1.621-6.53-1.669c-6.54-1.62-3.29-6.531-3.29-6.531l-1.62-4.909c-1.63-4.911-11.45-1.621-11.45-1.621l-1.67,6.53-11.44,1.621-6.54,1.669-13.11,8.151-4.91-1.62a8.34,8.34,0,0,0-8.21,1.62l-8.15,9.82s-14.74,1.669-24.56,1.669h-9.83l-1.67,6.531-28.38-53.73h-31.14c-4.92,0-8.16-1.621-13.07-1.621s-6.58-6.579-6.58-6.579h-4.91c-4.92,0-6,25.521-6,25.521L2562.27,825.3l-11.45,6.579-14.73,8.151-4.82,3.6a13.791,13.791,0,0,1-3.85,2.011l-5.62,1.883a13.671,13.671,0,0,1-4.35.709h-22.33c-6.53,0-8.15,3.29-8.15,3.29l-7.23,4.807a13.734,13.734,0,0,1-5.68,2.158l-8.41,1.186-9.43,1.6c-0.26.045-.53,0.082-0.8,0.111l-13.58,1.494a13.708,13.708,0,0,1-1.5.082h-7.4a13.763,13.763,0,0,0-3.3.4l-2.31.573a13.7,13.7,0,0,0-4.77,2.22l-12.25,8.913a13.709,13.709,0,0,1-8.06,2.622h-7.14a13.745,13.745,0,0,0-3.08.35,104.16,104.16,0,0,0-14.8,4.56c-8.15,3.289,0,0-11.44,1.62-3.84.539-5.11,0.737-5.26,0.737,0.54-.146,3.19-0.737.34-0.737l-17.29-1.555a13.533,13.533,0,0,1-1.45-.208l-4.77-.948a13.717,13.717,0,0,0-5.33,0h0a13.692,13.692,0,0,1-10.24-2.032l-3.95-2.623a13.65,13.65,0,0,0-2.48-1.306l-0.08-.032a13.674,13.674,0,0,1-8.31-9.916l-7.75-47a90.778,90.778,0,0,1-14.73,1.62c-6.54,0,0,0-8.16-1.62l-24.56,24.55h-11.49l-6.54,6.53-6.53,4.911-11.49,6.579-17.98,3.241h-11.49c-11.45,0,0,0-4.92-3.241-4.91-3.29,0,0-8.15-8.2l-4.91,8.2-6.58,3.241-4.92,8.2-4.91,1.623c-4.91,1.666-8.15,1.666-17.98,0h-6.58l-9.82-1.623-6.54,1.623-8.2,6.576-8.16,1.621-9.82-3.288-6.58-4.909-8.16,4.909-9.82,6.578-11.49,8.153-9.82,1.667h-4.92c-4.91,0-13.07-6.577-13.07-6.577l-6.58-1.623-4.91-1.62a8.083,8.083,0,0,0-8.15,1.62l-3.29,6.533-1.63,6.577-8.2,4.91-11.45-1.667-4.91-1.623a22.963,22.963,0,0,1-8.2-4.91l-6.53-8.2-6.59-4.91-6.53,1.667v6.53l-3.29,6.533-13.07,8.2h-6.58c-6.53,0-8.15,1.623-8.15,1.623h-8.2l-6.54,1.667-4.91-1.667c-4.91-1.623-11.49,1.667-11.49,1.667s-4.92,6.53-13.07,8.153h-13.11c-6.54,0-16.36,3.288-16.36,3.288s-8.2,3.289-14.74,3.289c-6.58,0-8.2-4.91-8.2-4.91h-9.82c-9.83,0,0,0-6.54-1.667-6.58-1.623-11.49,4.911-11.49,4.911l-4.91-1.623a28.877,28.877,0,0,0-8.16-1.621l-8.2-3.29-9.83-1.62-6.53-3.289-6.58-4.911-6.53-3.287-6.54-6.533-8.2-6.53s-13.11-1.667-18.03-3.29a8.2,8.2,0,0,0-8.15,1.623h-18.03l-4.91-1.623a43.568,43.568,0,0,0-11.45-1.62l-9.82-1.667-4.91-3.244c-4.91-3.289-3.29-6.576-3.29-6.576l-8.2-6.534-6.54-3.289-8.2-1.62-14.74-6.531-24.56-4.91-6.53-1.67c-6.53-1.62-16.36-4.909-16.36-4.909l-14.73-3.241h-13.12l-16.36,1.62-4.91-1.62c-4.91-1.67-6.58,4.91-6.58,4.91h-6.53l-4.91-1.669c-4.92-1.621-4.92-9.821-4.92-9.821l-6.53-6.53-8.2-1.62-4.91,1.62a11.071,11.071,0,0,0-6.54,6.53h-16.4l-8.16,1.67-8.2,1.62-8.2,4.91-8.16-3.29c-8.2-3.24,0,0-8.2-8.151l-9.83,1.621h-9.82l-18.03-1.621-6.53-3.289-14.74-1.62-6.53,1.62h-4.91c-4.92,0-6.58,3.289-13.12,1.62a26.381,26.381,0,0,0-6.28-.735,31.28,31.28,0,0,0-6.83.735l-4.91-4.91c-4.92-4.91-9.83,1.67-9.83,1.67l-8.15,4.909-11.49,4.911s-6.54,1.62-14.74-3.29l-8.16-8.2h-6.58l-8.15,9.82-14.74,1.67-4.91-1.67c-4.91-1.62-9.83-3.241-9.83-3.241l-6.58-3.289-8.15-1.62-8.2-1.67-9.83-1.62s-18.03,1.62-24.56,0,0,0-3.29,0h-27.8l-8.21,3.29-11.44,4.909-6.58-1.669-6.54-1.62-6.53,4.91-3.29,6.53-8.2,6.58-9.83,6.531-4.91,8.2-9.82,6.53-8.16,3.29L1027,872.61l-3.24,6.532v6.578l-6.58,4.91-9.83-1.667H995.908l-8.2-4.91-4.912-3.244a89.07,89.07,0,0,0-13.066-6.576l-9.824,4.909-8.2,4.911-11.445,6.577-9.824,1.62-8.2-1.62-9.824,1.62-9.825-4.91c-0.048,0-.048-0.047-0.1-0.047a0.362,0.362,0,0,1-.146-0.051c-0.445-.146-1.624-0.49-4.668-1.522a74.656,74.656,0,0,1-8.2-3.29H869.816l-4.911-9.82-11.446-3.29c-5.7-1.621-4.707-30.518-6.575-31.746a7.123,7.123,0,0,1-2.258-2.062l-11.445-3.29c-11.447-3.24,0,0-4.912,0h-40.92l-13.323-25.755-8.157,4.91H754.378l-4.912-3.29a59.557,59.557,0,0,1-8.156-6.531H736.4c-4.911,0-8.2,6.531-8.2,6.531l-8.2,9.82-6.535,1.623-4.913,8.2-9.824,8.2H687.277s-17.186-41.982-25.389-41.982l-13.115,9.82h-4.912a29.774,29.774,0,0,1-6.729-.834c-1.867-.393-3.095-0.788-3.095-0.788l-4.912-1.621c-4.912-1.667-6.533-4.91-6.533-4.91l-6.533,3.243-8.2,6.577v8.153l-1.393,2.786a6.865,6.865,0,0,1-6.139,3.791h0a6.863,6.863,0,0,1-4.124-1.377l-4.7-3.533-13.116,1.621-6.532,8.2-6.583,3.242-8.154,8.2-11.494,1.623-8.154-1.623c-8.2-1.62,0,0-9.824,0l-11.494,4.913h-9.824L493.258,839.8l-6.582,6.533-4.912,1.62c-4.912,1.667-6.533,0-6.533,0h-8.2l-8.154,1.667-8.2,4.91-1.621,9.82-6.582,8.154-3.242,8.2-4.912,1.62A123.632,123.632,0,0,1,419.8,885.58c-0.164.027-.3,0.057-0.466,0.1L413,887.237l-14.737-6.53-6.533-3.291-4.783,7.986c-0.086.142-.166,0.289-0.241,0.438l-3.178,6.307-4.913,8.2-9.824,6.53-8.154,1.669H344.227l-9.824-1.669L324.174,910.3c-0.687.309-2.579,1.066-7.749,3.154l-3.291,8.151-6.535,1.67c-6.58,1.62-6.58-1.67-6.58-1.67l-9.824-1.62-4.912-1.62c-4.912-1.67,0,0-11.445-4.91s0,0-4.912-4.911,0,0-11.448-9.82l-8.2-1.669h-8.2l-9.824,1.669s-6.535,3.241-11.447,3.241a36.032,36.032,0,0,1-9.824-1.62l-6.533-3.29c-6.579-3.241-13.115,0-13.115,0l-4.912-1.62a32.581,32.581,0,0,0-7.14-1.558,6.853,6.853,0,0,1-2.193-.567l-13.606-6.075-9.824-9.821-6.533-3.242L134.678,875.8,120.9,878.87a6.524,6.524,0,0,1-2.075.141,33.669,33.669,0,0,1-13.619-4.837l-6.581-3.288h-39.3l-8.154-3.29h-8.2l-6.533,1.667H24.943c-4.912,0-6.533-1.667-11.445-1.667s-3.291-6.53-3.291-6.53L-6.15,859.443V0.045H3556.71Z"/>
</svg>
